<?xml version="1.0" standalone="no"?>
<!DOCTYPE svg PUBLIC "-//W3C//DTD SVG 20010904//EN"
 "http://www.w3.org/TR/2001/REC-SVG-20010904/DTD/svg10.dtd">
<svg version="1.0" xmlns="http://www.w3.org/2000/svg"
 width="1024.000000pt" height="1024.000000pt" viewBox="0 0 1024.000000 1024.000000"
 preserveAspectRatio="xMidYMid meet">
<metadata>
Created by potrace 1.14, written by Peter Selinger 2001-2017
</metadata>
<g transform="translate(0.000000,1024.000000) scale(0.100000,-0.100000)"
fill="#000000" stroke="none">
<path d="M4205 10226 c-59 -19 -101 -43 -146 -83 -42 -38 -68 -80 -341 -553
-90 -157 -252 -436 -358 -620 -107 -184 -204 -360 -216 -390 l-23 -55 -878 -5
-878 -5 -55 -27 c-30 -15 -74 -46 -97 -70 -23 -25 -103 -150 -186 -293 -151
-261 -557 -966 -660 -1143 -121 -210 -118 -285 17 -520 66 -114 379 -656 559
-967 38 -66 104 -181 146 -255 48 -85 95 -154 129 -188 l53 -54 -140 -241
c-145 -253 -157 -273 -472 -817 -106 -184 -201 -357 -211 -385 -23 -66 -23
-162 0 -222 10 -27 139 -257 287 -513 147 -256 338 -586 423 -735 168 -292
211 -348 302 -393 l55 -27 813 -5 812 -5 53 -95 c29 -52 146 -255 259 -450
113 -195 282 -488 376 -650 93 -162 189 -317 213 -344 29 -32 66 -60 109 -80
l65 -31 910 0 910 0 65 31 c43 20 80 48 109 80 24 27 126 193 228 369 101 176
280 484 396 685 116 201 226 392 243 425 l33 60 818 5 818 5 55 26 c110 53 84
11 847 1337 89 156 167 300 173 320 13 47 13 147 0 194 -10 36 -119 227 -565
998 -126 217 -237 411 -248 430 l-19 35 48 51 c28 28 83 110 125 185 42 73
108 188 146 254 181 312 493 853 559 967 87 151 109 217 101 302 -9 92 -6 86
-337 656 -37 63 -154 266 -260 450 -106 184 -217 376 -246 426 -59 100 -121
165 -192 197 -47 22 -52 22 -925 27 l-878 5 -23 55 c-12 30 -124 231 -248 445
-124 215 -312 541 -418 725 -211 366 -244 411 -344 457 l-61 28 -895 2 c-702
1 -904 -1 -935 -11z m1795 -431 c26 -44 89 -154 142 -245 579 -1001 628 -1087
628 -1099 0 -6 -55 -106 -123 -223 -68 -117 -210 -364 -317 -548 -106 -184
-223 -387 -260 -450 -36 -63 -79 -136 -94 -162 l-27 -48 -824 0 -823 0 -39 68
c-159 273 -659 1140 -715 1236 -37 66 -68 123 -68 128 0 9 117 213 457 803 80
138 188 324 240 415 53 91 102 175 109 188 l15 22 826 -2 827 -3 46 -80z
m-2864 -1667 c14 -24 102 -176 195 -338 94 -162 215 -371 269 -465 54 -93 153
-264 219 -379 l121 -210 -24 -40 c-115 -200 -444 -770 -588 -1020 -99 -170
-186 -322 -194 -337 l-15 -29 -830 2 -830 3 -150 260 c-83 143 -177 305 -208
360 -101 175 -444 769 -454 785 -7 12 36 95 178 340 103 179 280 485 393 680
113 195 216 372 229 393 l23 37 820 0 820 0 26 -42z m5667 5 c13 -21 116 -198
229 -393 113 -195 290 -501 393 -680 141 -245 185 -328 178 -340 -5 -8 -72
-123 -148 -255 -76 -132 -177 -307 -225 -390 -48 -82 -167 -288 -265 -457
l-177 -308 -829 0 -828 0 -15 29 c-8 15 -95 167 -194 337 -144 250 -473 820
-588 1020 l-24 40 118 205 c65 112 205 355 312 539 276 478 346 599 374 648
l26 42 820 0 820 0 23 -37z m-2716 -1810 c72 -126 179 -311 238 -413 59 -102
186 -321 282 -488 l174 -303 -87 -152 c-147 -255 -212 -366 -449 -777 -126
-217 -242 -419 -258 -447 l-29 -53 -826 0 -827 0 -100 173 c-93 162 -285 494
-591 1024 l-135 232 54 93 c30 51 156 271 282 488 276 478 348 603 428 742
l62 108 825 0 826 0 131 -227z m-2688 -1686 c74 -127 164 -284 201 -347 37
-63 154 -266 260 -450 106 -184 201 -348 210 -365 18 -30 18 -30 -19 -95 -21
-36 -138 -238 -260 -450 -123 -212 -291 -503 -374 -647 l-152 -263 -827 0
-827 0 -69 117 c-63 108 -432 746 -659 1142 -52 90 -92 169 -90 175 3 7 47 84
97 172 51 87 203 350 338 584 134 234 276 478 314 543 l69 117 827 0 827 0
134 -233z m5259 221 c5 -7 63 -105 127 -218 185 -321 276 -480 489 -848 109
-188 196 -349 193 -356 -5 -13 -119 -210 -515 -896 -53 -91 -141 -244 -197
-340 l-101 -175 -829 -3 -830 -2 -56 97 c-31 54 -201 350 -379 658 -382 661
-380 657 -380 672 0 7 47 92 103 190 99 170 335 578 593 1025 l119 208 826 0
c649 0 829 -3 837 -12z m-2512 -1980 c109 -189 281 -487 382 -663 102 -176
197 -341 213 -368 16 -26 29 -53 29 -60 0 -6 -90 -167 -200 -357 -110 -190
-293 -508 -407 -707 l-208 -362 -830 -1 -830 0 -25 48 c-15 26 -120 209 -234
407 -446 770 -549 949 -553 965 -3 10 9 39 25 66 16 27 112 193 214 369 101
176 273 474 382 663 l198 342 823 0 823 0 198 -342z"/>
<path d="M5722 8148 c-23 -15 -70 -83 -146 -208 l-112 -185 -191 -5 c-173 -5
-194 -7 -219 -25 -85 -64 -81 -172 10 -239 26 -20 41 -21 274 -21 229 0 249 1
280 20 47 28 313 468 319 530 10 80 -46 146 -129 153 -44 3 -59 0 -86 -20z"/>
<path d="M3060 6358 c-24 -16 -68 -80 -145 -208 l-111 -185 -196 -5 -197 -5
-30 -29 c-56 -54 -64 -134 -20 -190 42 -53 58 -56 322 -56 237 0 245 1 278 23
48 32 310 465 317 523 13 118 -120 198 -218 132z"/>
<path d="M8470 6358 c-24 -16 -68 -80 -145 -208 l-111 -185 -191 -5 c-173 -5
-194 -7 -220 -26 -66 -48 -79 -142 -27 -203 41 -50 60 -52 332 -49 l252 3 29
30 c16 17 89 129 162 250 144 241 156 272 123 340 -35 74 -135 99 -204 53z"/>
<path d="M5740 4901 c-28 -14 -56 -54 -140 -193 -58 -97 -111 -183 -119 -192
-12 -14 -39 -16 -194 -16 -165 0 -182 -2 -214 -21 -87 -54 -87 -179 -1 -241
32 -23 37 -23 278 -23 229 0 247 1 280 21 28 16 64 69 177 258 127 213 143
244 143 284 0 110 -112 176 -210 123z"/>
<path d="M2963 3410 c-22 -13 -58 -63 -119 -167 -48 -81 -100 -167 -116 -190
l-29 -43 -182 0 c-163 0 -185 -2 -214 -20 -40 -24 -63 -67 -63 -120 0 -52 21
-92 62 -122 32 -23 37 -23 278 -23 228 0 247 1 279 20 27 16 66 72 178 259
127 211 143 243 143 283 0 55 -22 98 -63 123 -42 26 -112 26 -154 0z"/>
<path d="M8555 3421 c-35 -16 -69 -62 -174 -238 l-102 -173 -182 0 c-164 0
-185 -2 -215 -20 -95 -58 -94 -187 3 -247 26 -15 57 -18 230 -21 241 -4 295 1
334 33 35 30 298 468 307 512 8 42 -10 94 -46 128 -23 22 -41 29 -82 32 -29 1
-62 -1 -73 -6z"/>
<path d="M5766 2015 c-20 -7 -43 -18 -51 -25 -9 -7 -59 -85 -112 -174 -53 -88
-105 -173 -115 -188 l-19 -28 -182 0 c-163 0 -185 -2 -214 -20 -90 -54 -86
-190 7 -245 33 -19 48 -20 280 -17 219 3 248 6 275 22 21 13 74 92 173 256
128 214 142 242 142 283 0 101 -91 168 -184 136z"/>
</g>
</svg>
